<?xml version="1.0" standalone="no"?>
<!DOCTYPE svg PUBLIC "-//W3C//DTD SVG 20010904//EN"
 "http://www.w3.org/TR/2001/REC-SVG-20010904/DTD/svg10.dtd">
<svg version="1.0" xmlns="http://www.w3.org/2000/svg"
 width="100.000000pt" height="100.000000pt" viewBox="0 0 100.000000 100.000000"
 preserveAspectRatio="xMidYMid meet">
<metadata>
Created by potrace 1.11, written by Peter Selinger 2001-2013
</metadata>
<g transform="translate(0.000000,100.000000) scale(0.100000,-0.100000)"
fill="#000000" stroke="none">
<path d="M252 805 c-11 -14 -26 -25 -34 -25 -8 0 -19 -5 -25 -11 -6 -6 -22
-17 -35 -23 -28 -14 -35 -57 -13 -80 13 -13 35 -16 108 -14 l92 2 -93 5 c-86
6 -112 15 -112 41 0 20 74 72 93 64 10 -3 17 3 21 19 10 43 68 47 81 6 5 -15
10 -17 25 -9 10 5 25 7 34 4 21 -8 28 -34 11 -40 -8 -4 -15 -11 -15 -16 0 -7
5 -6 14 1 26 22 63 -10 50 -44 -6 -15 -19 -20 -74 -28 -14 -3 -5 -5 21 -6 25
0 50 4 57 11 19 19 14 66 -8 80 -11 7 -20 18 -20 25 0 17 -38 36 -60 30 -11
-3 -26 3 -36 14 -24 26 -59 24 -82 -6z"/>
<path d="M240 744 c-25 -13 -25 -14 -2 -14 12 0 22 4 22 9 0 5 8 12 18 14 11
3 12 5 2 5 -8 0 -26 -6 -40 -14z"/>
<path d="M615 746 c-39 -17 -60 -41 -85 -99 -26 -58 -54 -76 -81 -51 -15 14
-21 14 -34 4 -8 -7 -15 -18 -15 -24 0 -6 -23 -24 -51 -41 -62 -36 -129 -109
-129 -140 0 -28 22 -47 44 -39 8 3 25 22 37 41 27 43 108 98 123 83 15 -15 46
-12 52 5 4 8 17 15 30 15 27 0 32 -27 12 -60 -10 -16 -10 -24 0 -40 6 -11 12
-27 12 -35 0 -23 -28 -75 -61 -113 -32 -36 -37 -69 -13 -79 42 -16 109 60 141
160 11 35 25 58 36 60 23 7 22 33 -2 50 -20 13 -20 14 5 65 26 54 69 91 132
113 17 6 32 14 32 19 0 10 -80 30 -120 30 -30 0 -30 1 -15 23 8 13 26 30 40
37 14 7 25 17 25 22 0 13 -82 9 -115 -6z m14 -35 c-12 -16 -19 -35 -16 -43 3
-8 7 -3 11 12 4 14 19 34 34 45 l27 19 -27 -32 c-32 -38 -42 -80 -33 -138 4
-32 2 -50 -9 -66 -9 -12 -16 -30 -16 -40 0 -12 -8 -18 -24 -18 -29 0 -36 21
-36 113 0 77 14 112 60 151 42 34 56 33 29 -3z m120 -70 c9 -6 -4 -8 -35 -6
-27 2 -39 2 -26 -1 29 -7 25 -20 -16 -45 l-32 -21 0 25 c0 14 5 29 11 33 8 4
7 9 -2 15 -9 6 4 9 36 9 28 0 56 -4 64 -9z m-229 -86 c0 -29 -4 -35 -20 -35
-32 0 -37 30 -9 51 13 10 25 19 27 19 1 0 2 -16 2 -35z"/>
<path d="M602 625 c0 -16 2 -22 5 -12 2 9 2 23 0 30 -3 6 -5 -1 -5 -18z"/>
<path d="M560 570 c0 -13 7 -20 20 -20 13 0 20 7 20 20 0 13 -7 20 -20 20 -13
0 -20 -7 -20 -20z"/>
<path d="M185 709 c-4 -6 -4 -13 -1 -16 3 -4 6 -1 6 5 0 6 8 13 18 15 15 4 15
5 0 6 -9 0 -20 -4 -23 -10z"/>
<path d="M768 413 c-7 -10 -27 -26 -43 -35 -71 -40 -58 -82 26 -84 50 -1 51
-1 7 3 -26 2 -52 11 -59 20 -11 13 -9 19 16 39 17 13 35 22 42 20 6 -3 13 4
16 15 7 27 34 34 56 15 10 -9 25 -14 33 -11 18 7 44 -20 28 -30 -5 -3 -10 -12
-10 -18 0 -7 4 -6 10 3 8 13 11 13 26 -2 22 -21 6 -45 -34 -51 -26 -4 -26 -4
4 -6 32 -1 54 14 54 37 0 26 -52 82 -76 82 -12 0 -26 5 -29 10 -10 16 -53 11
-67 -7z"/>
</g>
</svg>
